grf
version=1
nRows=10
nColumns=28
inDegrees=no
endheader
time	ground_force_1_vx	ground_force_1_vy	ground_force_1_vz	ground_force_1_px	ground_force_1_py	ground_force_1_pz	ground_moment_1_mx	ground_moment_1_my	ground_moment_1_mz	ground_force_2_vx	ground_force_2_vy	ground_force_2_vz	ground_force_2_px	ground_force_2_py	ground_force_2_pz	ground_moment_2_mx	ground_moment_2_my	ground_moment_2_mz	ground_force_3_vx	ground_force_3_vy	ground_force_3_vz	ground_force_3_px	ground_force_3_py	ground_force_3_pz	ground_moment_3_mx	ground_moment_3_my	ground_moment_3_mz
      0.00000000	      0.28252005	      0.60909870	      1.90143435	    286.11489920	  -1234.54741474	      1.99467643	      0.08895596	      0.32166589	    176.25558596	      0.38876828	      0.15380674	      2.71127055	    188.71784718	  -1588.02521836	      0.26508239	     -0.01095916	     -0.14173415	    169.83625985	      1.38509838	     -0.89464364	      4.39504082	    508.74879260	   -237.28461956	      0.30145753	     -0.10421585	      0.76556204	    372.78289075
      0.01000000	      0.47370797	      0.54687388	      1.46738096	    285.75984929	  -1292.12245111	      2.09992988	      0.09396350	      0.33977323	    186.17743655	      0.25681175	     -0.00156645	      1.73802774	     12.51713497	  -1348.47042777	      0.45362918	     -0.00685444	     -0.08864804	    106.22458925	      1.55260695	     -0.75068051	      4.64634725	    521.97163867	   -263.51222783	      0.35901621	     -0.10016484	      0.73580357	    358.29229759
      0.02000000	      0.24864430	      0.44831192	      1.70585832	    299.69673175	  -1234.62443522	      1.98796226	      0.09415913	      0.34048063	    186.56505081	      0.40227538	      0.26533064	      1.39906056	    -82.28874349	  -1320.40566352	      0.47093257	     -0.02302998	     -0.29784536	    356.90017742	      1.70058900	     -0.67236235	      4.24809603	    511.47143542	   -230.23991567	      0.28775139	     -0.14261897	      1.04766852	    510.15186482
      0.03000000	      0.43361920	      0.43324366	      1.61582723	    230.37803246	  -1206.71794762	      1.97201806	      0.11179511	      0.40425258	    221.50864516	      0.41852673	     -0.04176387	      1.99792987	    124.38162273	  -1501.08994015	      0.33348137	     -0.01258846	     -0.16280579	    195.08585190	      1.42457341	     -0.89442608	      4.43772774	    468.12812878	   -284.05215096	      0.38614524	     -0.11473755	      0.84285363	    410.41927138
      0.04000000	      0.35528839	      0.55770802	      1.74248004	    304.18620452	  -1232.53203097	      1.98187780	      0.08546847	      0.30905509	    169.34554597	      0.37086961	      0.13590110	      2.14597861	    155.27530976	  -1536.35485709	      0.30604509	     -0.01583288	     -0.20476568	    245.36527236	      1.70288632	     -0.80750773	      4.87790227	    472.53358631	   -275.20030704	      0.36919833	     -0.11419684	      0.83888162	    408.48514102
      0.05000000	      0.24259225	      0.36730143	      1.82139731	    316.38592494	  -1272.98688159	      2.04955059	      0.07290721	      0.26363342	    144.45691882	      0.50554588	      0.19430776	      1.74917760	     65.12192237	  -1399.52370615	      0.41441795	     -0.01761261	     -0.22778276	    272.94602116	      1.65971858	     -0.61492743	      4.86732710	    443.75594230	   -306.49437069	      0.42541996	     -0.05698328	      0.41859498	    203.83070047
      0.06000000	      0.27438597	      0.49518408	      1.31466309	    281.91428484	  -1277.68563746	      2.07552359	      0.08347304	      0.30183960	    165.39184668	      0.33163784	      0.14677925	      1.73321896	     74.53910140	  -1518.46489405	      0.31576515	     -0.01090164	     -0.14099020	    168.94481302	      1.33430676	     -0.74711574	      4.37137263	    509.27251104	   -280.30199621	      0.38994617	     -0.09245220	      0.67914713	    330.70400246
      0.07000000	      0.73434359	      0.92126112	      1.71732144	    344.04423465	  -1267.62872008	      2.02581285	      0.08351253	      0.30198237	    165.47007909	      0.49154616	      0.60686962	      2.48134934	    130.54839391	  -1612.41497312	      0.24097476	     -0.01814407	     -0.23465615	    281.18222981	    101.69893494	     64.56716713	   -204.17364235	    471.81211890	   -686.35431251	      1.21335915	     -0.00561459	      0.04124434	     20.08352686
      0.08000000	      1.73471114	     -0.13224358	      0.75878137	    314.83507739	  -1271.05169372	      2.04680159	      0.03920333	      0.14175976	     77.67671360	      0.19903145	      0.38268034	      2.14198156	    110.81781960	  -1445.78336486	      0.37876135	     -0.02094016	     -0.27081779	    324.51376495	    -61.16272553	    495.74470411	   -898.43103780	    526.93359518	   -653.63398238	      1.16157322	      1.24901813	     -9.17519596	  -4467.77126740
      0.09000000	      0.09138790	      0.17990038	      0.35580285	   -364.32311601	  -1542.64548090	      2.88522961	      0.11010379	      0.39813671	    218.15748068	      0.57579721	      0.13413308	     -2.65184550	    806.51338237	  -2093.25887325	     -0.11668732	      0.01197336	      0.15485074	   -185.55352339	   -665.47701965	    562.68639114	  -1737.00282488	    561.27517360	   -647.97528500	      1.15955288	     -1.81456371	     13.32965242	   6490.74290055
